<svg width="339" height="924" viewBox="0 0 339 924" fill="none" xmlns="http://www.w3.org/2000/svg">
<path d="M727.809 474.813C715.794 474.989 705.202 477.199 698.365 483.822C679.86 501.751 705.448 574.534 681.28 593.35C660.322 609.666 597.443 566.778 571.407 581.707C548.18 595.024 553.337 671.505 525.493 682.283C500.502 691.957 452.835 632.4 423.713 638.991C397.581 644.909 380.775 719.572 351.032 722.253C345.758 722.73 329.783 647.948 299.39 639.849C282.563 635.36 243.906 698.449 223.307 692.38C205.088 687.004 206.759 613.069 187.648 607.018C168.582 600.977 127.202 662.323 109.19 656.111C88.9881 649.147 94.8168 575.498 78.5104 569.01C59.6711 561.515 24.684 585.186 3.99995 596.425" stroke="#0553F1" stroke-width="12.8502" stroke-miterlimit="10" stroke-dasharray="12.51 7.51 12.51 12.51 7.51 12.51"/>
</svg>
