<svg width="1253" height="1008" viewBox="0 0 1253 1008" fill="none" xmlns="http://www.w3.org/2000/svg">
<path d="M1167.62 177.387C1158.07 386.743 978.588 476.95 785.329 445.09" stroke="#0553F1" stroke-width="14" stroke-miterlimit="10"/>
<path d="M1139.47 178.852L1205 175.449" stroke="#0553F1" stroke-width="14" stroke-miterlimit="10"/>
<path d="M879.817 517.836C877.781 519.799 875.024 521.125 871.684 521.975" stroke="#0553F1" stroke-width="14" stroke-miterlimit="10"/>
<path d="M860.442 523.21C844.318 523.389 822.23 518.899 802.191 517.867" stroke="#0553F1" stroke-width="14" stroke-miterlimit="10" stroke-dasharray="13.63 13.63 8.18 13.63"/>
<path d="M792.735 517.681C779.646 517.873 768.105 520.281 760.657 527.496C740.496 547.03 768.373 626.324 742.044 646.824C719.21 664.6 650.705 617.875 622.339 634.14C597.034 648.648 602.652 731.972 572.317 743.715C545.09 754.254 493.158 689.368 461.431 696.549C432.961 702.996 414.65 784.34 382.246 787.261C376.5 787.781 359.097 706.307 325.984 697.484C307.652 692.593 265.536 761.326 243.093 754.715C223.244 748.858 225.065 668.307 204.244 661.715C183.472 655.134 138.389 721.968 118.766 715.201C96.7564 707.614 103.107 627.375 85.3413 620.306C64.8163 612.14 26.6988 637.929 4.16401 650.174" stroke="#0553F1" stroke-width="14" stroke-miterlimit="10" stroke-dasharray="13.63 8.18 13.63 13.63 8.18 13.63"/>
</svg>
