<svg width="30" height="30" viewBox="0 0 30 30" fill="none" xmlns="http://www.w3.org/2000/svg">
<path d="M30 15.48C30 25.77 25.29 30 15 30C4.71 30 0 25.8 0 15.48C0 5.19 4.71 0 15 0C25.32 0 30 5.19 30 15.48Z" fill="#F15B5B"/>
<path d="M15 6.80124C17.6708 6.80124 18.0124 6.80124 19.0683 6.86335C20.0621 6.89441 20.5901 7.08075 20.9317 7.20497C21.3975 7.3913 21.7391 7.6087 22.0807 7.95031C22.4224 8.29193 22.6398 8.63354 22.8261 9.09938C22.9503 9.44099 23.1366 10 23.1677 10.9627C23.2298 12.0186 23.2298 12.3292 23.2298 15.0311C23.2298 17.7019 23.2298 18.0435 23.1677 19.0994C23.1366 20.0932 22.9503 20.6211 22.8261 20.9627C22.6398 21.4286 22.4224 21.7702 22.0807 22.1118C21.7391 22.4534 21.3975 22.6708 20.9317 22.8571C20.5901 22.9814 20.0311 23.1677 19.0683 23.1988C18.0124 23.2609 17.7019 23.2609 15 23.2609C12.3292 23.2609 11.9876 23.2609 10.9317 23.1988C9.93789 23.1677 9.40994 22.9814 9.06832 22.8571C8.60248 22.6708 8.26087 22.4534 7.91925 22.1118C7.57764 21.7702 7.36025 21.4286 7.17391 20.9627C7.04969 20.6211 6.86335 20.0621 6.8323 19.0994C6.77019 18.0435 6.77019 17.7329 6.77019 15.0311C6.77019 12.3602 6.77019 12.0186 6.8323 10.9627C6.86335 9.96894 7.04969 9.44099 7.17391 9.09938C7.36025 8.63354 7.57764 8.29193 7.91925 7.95031C8.26087 7.6087 8.60248 7.3913 9.06832 7.20497C9.40994 7.08075 9.96895 6.89441 10.9317 6.86335C12.0186 6.80124 12.3292 6.80124 15 6.80124ZM15 5C12.2671 5 11.9255 5 10.8696 5.06211C9.81366 5.12422 9.06832 5.2795 8.4472 5.52795C7.79503 5.7764 7.23603 6.11801 6.67702 6.67702C6.11801 7.23603 5.7764 7.79503 5.52795 8.4472C5.2795 9.09938 5.12422 9.81366 5.06211 10.8696C5 11.9255 5 12.2981 5 15C5 17.7329 5 18.0745 5.06211 19.1304C5.12422 20.1863 5.2795 20.9317 5.52795 21.5528C5.7764 22.205 6.11801 22.764 6.67702 23.323C7.23603 23.882 7.79503 24.2236 8.4472 24.472C9.09938 24.7205 9.81366 24.8758 10.8696 24.9379C11.9255 25 12.2671 25 15 25C17.7329 25 18.0745 25 19.1304 24.9379C20.1863 24.8758 20.9317 24.7205 21.5528 24.472C22.205 24.2236 22.764 23.882 23.323 23.323C23.882 22.764 24.2236 22.205 24.472 21.5528C24.7205 20.9006 24.8758 20.1863 24.9379 19.1304C25 18.0745 25 17.7019 25 15C25 12.2671 25 11.9255 24.9379 10.8696C24.8758 9.81366 24.7205 9.06832 24.472 8.4472C24.2236 7.79503 23.882 7.23603 23.323 6.67702C22.764 6.11801 22.205 5.7764 21.5528 5.52795C20.9006 5.2795 20.1863 5.12422 19.1304 5.06211C18.0745 5 17.7329 5 15 5Z" fill="white"/>
<path d="M15.0026 9.87549C12.1454 9.87549 9.84728 12.1736 9.84728 15.0308C9.84728 17.8879 12.1765 20.186 15.0026 20.186C17.8597 20.186 20.1578 17.8879 20.1578 15.0308C20.1578 12.1736 17.8597 9.87549 15.0026 9.87549ZM15.0026 18.3848C13.1392 18.3848 11.6485 16.8941 11.6485 15.0308C11.6485 13.1674 13.1392 11.6767 15.0026 11.6767C16.8659 11.6767 18.3566 13.1674 18.3566 15.0308C18.3566 16.8941 16.8659 18.3848 15.0026 18.3848Z" fill="white"/>
<path d="M21.5812 9.65771C21.5812 10.3099 21.0532 10.8689 20.37 10.8689C19.7178 10.8689 19.1588 10.3409 19.1588 9.65771C19.1588 9.00554 19.6868 8.44653 20.37 8.44653C21.0222 8.47759 21.5812 9.00554 21.5812 9.65771Z" fill="white"/>
</svg>
