<svg width="118" height="30" viewBox="0 0 118 30" fill="none" xmlns="http://www.w3.org/2000/svg">
<path d="M43.8004 23.3003H44.1646V27.2998H46.8627V23.3003H47.2269V27.2998H47.8341V28.6792H47.4699V27.638H43.8004V23.3003Z" fill="#F15B5B"/>
<path d="M50.6164 23.1963C51.7962 23.1963 52.3865 24.1244 52.3865 25.1742C52.3865 25.2434 52.3778 25.3305 52.3692 25.4084H48.8902C48.8902 26.6661 49.7404 27.3863 50.7469 27.3863C51.2323 27.3863 51.7442 27.1867 52.0916 26.8398L52.2908 27.1434C51.9093 27.508 51.3021 27.7419 50.7469 27.7419C49.5233 27.7419 48.5087 26.8571 48.5087 25.4777C48.5087 24.0118 49.5061 23.1963 50.6164 23.1963ZM52.0045 25.0703C51.9612 24.0118 51.328 23.5345 50.6078 23.5345C49.8097 23.5345 49.0726 24.0551 48.9162 25.0703H52.0045Z" fill="#F15B5B"/>
<path d="M53.5718 23.3003H53.936V25.2349H56.7727V23.3003H57.1374V27.638H56.7727V25.5736H53.936V27.638H53.5718V23.3003Z" fill="#F15B5B"/>
<path d="M59.7551 23.639H58.1068V23.3003H61.7677V23.639H60.1193V27.638H59.7551V23.639Z" fill="#F15B5B"/>
<path d="M62.7371 23.3002H63.1013V23.8208C63.1013 24.0204 63.0754 24.1682 63.0754 24.1682H63.0927C63.353 23.5605 63.9428 23.1963 64.6544 23.1963C65.8168 23.1963 66.5279 24.1244 66.5279 25.4691C66.5279 26.8484 65.721 27.7419 64.602 27.7419C63.9428 27.7419 63.3616 27.3777 63.084 26.7619H63.0667C63.0667 26.7619 63.1013 26.9177 63.1013 27.1434V29.3729H62.7371V23.3002ZM64.602 27.3863C65.4526 27.3863 66.1464 26.6839 66.1464 25.4691C66.1464 24.2981 65.5218 23.5518 64.6371 23.5518C63.8389 23.5518 63.0927 24.1157 63.0927 25.4777C63.0927 26.4409 63.6306 27.3863 64.602 27.3863Z" fill="#F15B5B"/>
<path d="M71.8506 23.1963C73.0909 23.1963 74.0974 24.1768 74.0974 25.4431C74.0974 26.7359 73.0909 27.7419 71.8506 27.7419C70.6098 27.7419 69.6038 26.7359 69.6038 25.4431C69.6038 24.1768 70.6098 23.1963 71.8506 23.1963ZM71.8506 27.3863C72.8826 27.3863 73.7154 26.5449 73.7154 25.4431C73.7154 24.3674 72.8826 23.5518 71.8506 23.5518C70.8182 23.5518 69.9853 24.3674 69.9853 25.4431C69.9853 26.5449 70.8182 27.3863 71.8506 27.3863Z" fill="#F15B5B"/>
<path d="M75.2918 23.3002H75.656V23.8208C75.656 24.0204 75.6301 24.1682 75.6301 24.1682H75.6474C75.9077 23.5605 76.4975 23.1963 77.2091 23.1963C78.3715 23.1963 79.0826 24.1244 79.0826 25.4691C79.0826 26.8484 78.2757 27.7419 77.1567 27.7419C76.4975 27.7419 75.9163 27.3777 75.6388 26.7619H75.6214C75.6214 26.7619 75.656 26.9177 75.656 27.1434V29.3729H75.2918V23.3002ZM77.1567 27.3863C78.0068 27.3863 78.7011 26.6839 78.7011 25.4691C78.7011 24.2981 78.0765 23.5518 77.1918 23.5518C76.3936 23.5518 75.6474 24.1157 75.6474 25.4777C75.6474 26.4409 76.1853 27.3863 77.1567 27.3863Z" fill="#F15B5B"/>
<path d="M81.2839 23.639H79.6355V23.3003H83.2964V23.639H81.6481V27.638H81.2839V23.639Z" fill="#F15B5B"/>
<path d="M85.9838 23.1963C87.2241 23.1963 88.2306 24.1768 88.2306 25.4431C88.2306 26.7359 87.2241 27.7419 85.9838 27.7419C84.743 27.7419 83.7369 26.7359 83.7369 25.4431C83.7369 24.1768 84.743 23.1963 85.9838 23.1963ZM85.9838 27.3863C87.0157 27.3863 87.8485 26.5449 87.8485 25.4431C87.8485 24.3674 87.0157 23.5518 85.9838 23.5518C84.9513 23.5518 84.1185 24.3674 84.1185 25.4431C84.1185 26.5449 84.9513 27.3863 85.9838 27.3863Z" fill="#F15B5B"/>
<path d="M89.156 27.2998C90.0061 26.224 90.0061 24.4367 90.0061 23.9166V23.3003H92.4525V27.2998H93.0597V28.6792H92.6955V27.638H88.9914V28.6792H88.6268V27.2998H89.156ZM92.0884 27.2998V23.6303H90.3708V23.9166C90.3708 24.5671 90.3184 26.2327 89.5899 27.2998H92.0884Z" fill="#F15B5B"/>
<path d="M95.9727 23.1963C97.2131 23.1963 98.2195 24.1768 98.2195 25.4431C98.2195 26.7359 97.2131 27.7419 95.9727 27.7419C94.7319 27.7419 93.7259 26.7359 93.7259 25.4431C93.7259 24.1768 94.7319 23.1963 95.9727 23.1963ZM95.9727 27.3863C97.0047 27.3863 97.8375 26.5449 97.8375 25.4431C97.8375 24.3674 97.0047 23.5518 95.9727 23.5518C94.9402 23.5518 94.1074 24.3674 94.1074 25.4431C94.1074 26.5449 94.9402 27.3863 95.9727 27.3863Z" fill="#F15B5B"/>
<path d="M99.4132 23.3003H99.7774V25.2349H102.614V23.3003H102.979V27.638H102.614V25.5736H99.7774V27.638H99.4132V23.3003Z" fill="#F15B5B"/>
<path d="M105.597 23.639H103.948V23.3003H107.609V23.639H105.961V27.638H105.597V23.639Z" fill="#F15B5B"/>
<path d="M108.579 23.3003H108.943V26.389C108.943 26.684 108.917 27.0915 108.917 27.0915H108.934C108.934 27.0915 109.238 26.6575 109.429 26.389L111.797 23.3003H112.135V27.638H111.771V24.5411C111.771 24.2462 111.797 23.8642 111.797 23.8642H111.779C111.779 23.8642 111.476 24.2722 111.285 24.5411L108.917 27.638H108.579V23.3003Z" fill="#F15B5B"/>
<path d="M113.642 23.3003H114.006V26.389C114.006 26.684 113.98 27.0915 113.98 27.0915H113.997C113.997 27.0915 114.301 26.6575 114.492 26.389L116.86 23.3003H117.199V27.638H116.834V24.5411C116.834 24.2462 116.86 23.8642 116.86 23.8642H116.843C116.843 23.8642 116.539 24.2722 116.348 24.5411L113.98 27.638H113.642V23.3003Z" fill="#F15B5B"/>
<path d="M6.81221 11.7206C6.6399 12.3018 6.44654 13.162 6.44654 13.162H6.40323C6.40323 13.162 6.20979 12.2585 5.99477 11.6777L3.69258 5.35205H0.615891L5.24131 16.1526L4.83285 17.1211C4.42393 18.0892 3.67092 18.5409 2.91799 18.5409C2.31564 18.5409 1.71329 18.0892 1.71329 18.0892L0.809249 20.1329C0.809249 20.1329 1.77773 20.843 3.09022 20.843C4.70347 20.843 6.29598 19.9823 7.0489 17.9814L11.9327 5.35205H8.96374L6.81221 11.7206Z" fill="#F15B5B"/>
<path d="M14.3234 8.79441C14.3234 12.6891 13.3771 13.8293 12.0213 14.0227V16.4327C15.6575 16.3249 16.9268 13.5709 16.9268 8.79441V7.56803H19.5946V16.3249H22.3272V5.35205H14.3234V8.79441Z" fill="#F15B5B"/>
<path d="M29.9461 9.11728H27.988V5.35205H25.2557V16.3249H29.9245C32.8073 16.3249 34.077 14.8835 34.077 12.7535C34.077 10.3653 32.5278 9.11728 29.9461 9.11728ZM29.4938 14.4528H27.988V10.9676H29.451C30.7419 10.9676 31.3231 11.7206 31.3231 12.7319C31.3231 13.7216 30.7419 14.4528 29.4938 14.4528Z" fill="#F15B5B"/>
<path d="M35.583 16.3249H38.3153V5.35205H35.583V16.3249Z" fill="#F15B5B"/>
<path d="M47.0539 6.29892C45.7847 6.29892 44.4077 6.68625 43.4392 7.89096H43.3965C43.5037 5.99778 44.7301 4.98643 46.6021 4.21184L50.7758 2.6198L49.9584 0.403809L46.1715 1.88854C42.1701 3.43726 40.7715 5.78268 40.7715 9.91358C40.7715 13.8077 42.5573 16.5833 46.3654 16.5833C49.6139 16.5833 51.7443 14.3673 51.7443 11.3333C51.7443 8.29988 49.8723 6.29892 47.0539 6.29892ZM46.2577 14.324C44.7734 14.324 43.547 13.227 43.547 11.355C43.547 9.63358 44.7301 8.4072 46.3009 8.4072C47.764 8.4072 48.9903 9.52626 48.9903 11.3767C48.9903 13.227 47.764 14.324 46.2577 14.324Z" fill="#F15B5B"/>
<path d="M82.3741 11.226C82.0946 11.6561 81.6856 12.2585 81.5567 12.538H81.5139C81.535 12.3662 81.5783 11.7206 81.5783 11.226V5.35205H78.975V16.3249H81.6211L85.6876 10.473C85.967 10.0424 86.376 9.46175 86.505 9.16054H86.5483C86.5266 9.44009 86.4838 10.0641 86.4838 10.473V16.3249H89.0871V5.35205H86.4405L82.3741 11.226Z" fill="#F15B5B"/>
<path d="M97.5445 14.2595C95.4358 14.2595 94.1233 12.6675 94.1233 10.8171C94.1233 8.94514 95.4358 7.41754 97.4584 7.41754C98.5341 7.41754 99.6099 7.91265 100.298 8.60113L101.525 6.72907C100.47 5.58882 98.792 5.09424 97.3077 5.09424C93.6715 5.09424 91.3482 7.71921 91.3482 10.8388C91.3482 14.0228 93.6715 16.5833 97.3077 16.5833C99.072 16.5833 100.793 15.8948 101.826 14.7974L100.771 12.8609C99.9539 13.6572 98.7059 14.2595 97.5445 14.2595Z" fill="#F15B5B"/>
<path d="M108.584 9.11728H106.54V5.35205H103.808V16.3249H108.562C111.445 16.3249 112.714 14.8835 112.714 12.7535C112.714 10.3653 111.166 9.11728 108.584 9.11728ZM108.132 14.4528H106.54V10.9676H108.089C109.38 10.9676 109.961 11.7206 109.961 12.7319C109.961 13.7216 109.38 14.4528 108.132 14.4528Z" fill="#F15B5B"/>
<path d="M116.989 12.0186L117.199 1.41064H114.447L114.657 12.0186H116.989Z" fill="#F15B5B"/>
<path d="M114.531 16.3249H117.115V13.8252H114.531V16.3249Z" fill="#F15B5B"/>
<path d="M76.2403 7.53569C75.5744 8.08374 74.8177 8.57301 73.9875 9.00052V5.35205H71.2552V10.1007C69.2747 10.7083 67.0481 11.0332 64.7086 11.0332C64.638 11.0332 64.5666 11.0329 64.4961 11.0323C62.6392 11.0167 60.863 10.7944 59.2838 10.4035V5.35205H56.5515V9.46437C55.6529 9.04846 54.8868 8.56133 54.3003 8.01221L52.6052 9.82289C53.6083 10.762 54.9603 11.5458 56.5515 12.1483V16.3249H59.2838V12.9508C60.8914 13.3016 62.6442 13.4973 64.4752 13.5127C64.5524 13.5133 64.629 13.5136 64.7059 13.5136C67.0084 13.5136 69.2254 13.223 71.2552 12.6759V16.3249H73.9875V11.7309C75.4262 11.1149 76.7217 10.3522 77.8166 9.45108L76.2403 7.53569Z" fill="#F15B5B"/>
</svg>
