<svg width="843" height="716" viewBox="0 0 843 716" fill="none" xmlns="http://www.w3.org/2000/svg">
<path d="M792.735 255.681C779.646 255.873 768.105 258.281 760.657 265.496C740.496 285.03 768.373 364.324 742.044 384.824C719.21 402.6 650.705 355.875 622.339 372.14C597.034 386.648 602.652 469.972 572.317 481.715C545.09 492.254 493.158 427.368 461.431 434.549C432.961 440.996 414.65 522.34 382.246 525.261C376.5 525.781 359.097 444.307 325.984 435.484C307.652 430.593 265.536 499.326 243.093 492.715C223.244 486.858 225.065 406.307 204.244 399.715C183.472 393.134 138.389 459.968 118.766 453.201C96.7564 445.614 103.107 365.375 85.3413 358.306C64.8163 350.14 26.6988 375.929 4.16401 388.174" stroke="#0553F1" stroke-width="14" stroke-miterlimit="10" stroke-dasharray="13.63 8.18 13.63 13.63 8.18 13.63"/>
</svg>
