<svg width="30" height="30" viewBox="0 0 30 30" fill="none" xmlns="http://www.w3.org/2000/svg">
<path d="M30 15.48C30 25.77 25.29 30 15 30C4.71 30 0 25.8 0 15.48C0 5.19 4.71 0 15 0C25.32 0 30 5.19 30 15.48Z" fill="#0C70F1"/>
<path d="M24.4546 10.7581C24.4546 10.7581 24.3091 10.3608 23.4052 10.47L20.4129 10.4899C20.1844 10.4601 20.0181 10.5495 20.0181 10.5495C20.0181 10.5495 19.8415 10.6389 19.7584 10.8574C19.2701 12.0593 18.6467 13.0923 18.6467 13.0923C17.3168 15.2577 16.7765 15.3769 16.5583 15.2379C16.0492 14.9299 16.1843 13.9863 16.1843 13.3109C16.1843 11.2051 16.5168 10.331 15.5297 10.1025C15.2076 10.033 14.9687 9.98331 14.1271 9.97338C13.057 9.96345 12.153 9.97338 11.6439 10.2118C11.3011 10.3707 11.0413 10.7283 11.1972 10.7482C11.3946 10.778 11.8413 10.8673 12.0803 11.1753C12.0803 11.1753 12.3401 11.5825 12.3816 12.4765C12.4959 14.9498 11.966 15.2577 11.966 15.2577C11.5608 15.4663 10.8543 15.1187 9.81533 13.0725C9.81533 13.0725 9.21272 12.0593 8.74518 10.9468C8.66206 10.7382 8.49583 10.629 8.49583 10.629C8.49583 10.629 8.30881 10.4899 8.03868 10.4502L5.19187 10.47C4.7555 10.47 4.59965 10.6588 4.59965 10.6588C4.59965 10.6588 4.44381 10.8177 4.58926 11.1455C6.81268 16.1418 9.34779 18.6449 9.34779 18.6449C9.34779 18.6449 11.6647 20.9592 14.2933 20.8003H15.4882C15.8518 20.7705 16.0388 20.5818 16.0388 20.5818C16.0388 20.5818 16.2051 20.403 16.1947 20.0752C16.1739 18.5455 16.922 18.3171 16.922 18.3171C17.6492 18.0985 18.5843 19.7971 19.5817 20.4527C19.5817 20.4527 20.3402 20.9493 20.9116 20.84L23.5714 20.8003C24.9741 20.7904 24.3091 19.6779 24.3091 19.6779C24.2572 19.5885 23.9247 18.9031 22.3247 17.4827C20.6623 16.0027 20.8805 16.2411 22.8961 13.6784C24.1221 12.1189 24.6104 11.1653 24.4546 10.7581Z" fill="white"/>
</svg>
