<svg width="32" height="38" viewBox="0 0 32 38" fill="none" xmlns="http://www.w3.org/2000/svg">
<path fill-rule="evenodd" clip-rule="evenodd" d="M13.0408 8.93396L9.38858 8.93646L9.38995 6.95747C9.39109 5.39082 8.3598 4.33881 6.82404 4.33987C5.28828 4.34094 4.25563 5.39438 4.25457 6.96104L4.25313 8.94011L0.600906 8.94261L0.602273 6.96362C0.604854 3.36932 3.28075 0.657216 6.82662 0.654787C10.3726 0.652282 13.0447 3.36067 13.0422 6.95489L13.0408 8.93396Z" fill="#FFBBC2"/>
<path fill-rule="evenodd" clip-rule="evenodd" d="M31.9985 8.92077L28.3463 8.92335L28.3477 6.94429C28.3487 5.37763 27.3175 4.32563 25.7819 4.32669C24.2461 4.32775 23.2134 5.3812 23.2122 6.94793L23.2109 8.92692L19.5586 8.9295L19.56 6.95044C19.5625 3.35621 22.2385 0.644032 25.7844 0.641603C29.3303 0.639098 32.0024 3.34748 31.9999 6.94179L31.9985 8.92077Z" fill="#FFBBC2"/>
<path fill-rule="evenodd" clip-rule="evenodd" d="M15.983 37.9253C11.5225 37.9284 7.45436 36.3028 4.5282 33.3482C1.605 30.3965 -0.00318339 26.2948 4.7311e-06 21.7985L0.00440756 15.4526L3.65131 15.45L3.64691 21.796C3.64441 25.3193 4.87677 28.5055 7.11688 30.7674C9.35395 33.0261 12.5035 34.2688 15.9855 34.2664C19.4674 34.2639 22.6187 33.0169 24.8589 30.755C27.1022 28.4899 28.3391 25.3021 28.3415 21.7787L28.346 15.4328L31.9927 15.4302L31.9883 21.7762C31.9851 26.2724 30.3713 30.3764 27.4441 33.3322C24.5137 36.2909 20.4435 37.9221 15.983 37.9253Z" fill="#FFBBC2"/>
</svg>
