<svg width="1253" height="1008" fill="none" xmlns="http://www.w3.org/2000/svg"><path d="M1167.62 177.387c-9.55 209.356-189.032 299.563-382.291 267.703m354.141-266.238l65.53-3.403M879.817 517.836c-2.036 1.963-4.793 3.289-8.133 4.139" stroke="#0553F1" stroke-width="14" stroke-miterlimit="10"/><path d="M860.442 523.21c-16.124.179-38.212-4.311-58.251-5.343" stroke="#0553F1" stroke-width="14" stroke-miterlimit="10" stroke-dasharray="13.63 13.63 8.18 13.63"/><path d="M792.735 517.681c-13.089.192-24.63 2.6-32.078 9.815-20.161 19.534 7.716 98.828-18.613 119.328-22.834 17.776-91.339-28.949-119.705-12.684-25.305 14.508-19.687 97.832-50.022 109.575-27.227 10.539-79.159-54.347-110.886-47.166-28.47 6.447-46.781 87.791-79.185 90.712-5.746.52-23.149-80.954-56.262-89.777-18.332-4.891-60.448 63.842-82.891 57.231-19.849-5.857-18.028-86.408-38.849-93-20.772-6.581-65.855 60.253-85.478 53.486-22.01-7.587-15.659-87.826-33.425-94.895-20.525-8.166-58.642 17.623-81.177 29.868" stroke="#0553F1" stroke-width="14" stroke-miterlimit="10" stroke-dasharray="13.63 8.18 13.63 13.63 8.18 13.63"/></svg>