<svg width="30" height="30" fill="none" xmlns="http://www.w3.org/2000/svg"><path d="M30 15.48C30 25.77 25.29 30 15 30S0 25.8 0 15.48C0 5.19 4.71 0 15 0c10.32 0 15 5.19 15 15.48z" fill="#F15B5B"/><path d="M15 6.801c2.67 0 3.012 0 4.068.062.994.031 1.522.218 1.864.342.466.186.807.404 1.149.745.341.342.559.684.745 1.15.124.341.31.9.342 1.863.062 1.056.062 1.366.062 4.068 0 2.67 0 3.013-.062 4.068-.031.994-.218 1.522-.342 1.864a3.195 3.195 0 01-.745 1.149 3.196 3.196 0 01-1.15.745c-.34.124-.9.31-1.863.342-1.056.062-1.366.062-4.068.062-2.67 0-3.012 0-4.068-.062-.994-.031-1.522-.218-1.864-.342a3.196 3.196 0 01-1.149-.745 3.196 3.196 0 01-.745-1.15c-.124-.34-.31-.9-.342-1.863-.062-1.055-.062-1.366-.062-4.068 0-2.67 0-3.012.062-4.068.031-.994.218-1.522.342-1.864a3.21 3.21 0 01.745-1.149 3.197 3.197 0 011.15-.745c.34-.124.9-.31 1.863-.342 1.087-.062 1.397-.062 4.068-.062zM15 5c-2.733 0-3.075 0-4.13.062-1.056.062-1.802.217-2.423.466a4.824 4.824 0 00-1.77 1.149 4.824 4.824 0 00-1.149 1.77c-.248.652-.404 1.367-.466 2.423S5 12.298 5 15c0 2.733 0 3.075.062 4.13.062 1.056.217 1.802.466 2.423.248.652.59 1.211 1.149 1.77.559.559 1.118.9 1.77 1.149.652.248 1.367.404 2.423.466S12.267 25 15 25c2.733 0 3.075 0 4.13-.062 1.056-.062 1.802-.217 2.423-.466a4.823 4.823 0 001.77-1.149c.559-.559.9-1.118 1.149-1.77.248-.652.404-1.367.466-2.423C25 18.075 25 17.702 25 15c0-2.733 0-3.075-.062-4.13-.062-1.056-.217-1.802-.466-2.423a4.823 4.823 0 00-1.149-1.77 4.824 4.824 0 00-1.77-1.149c-.652-.248-1.367-.404-2.423-.466C18.075 5 17.733 5 15 5z" fill="#fff"/><path d="M15.003 9.875a5.143 5.143 0 00-5.156 5.156 5.162 5.162 0 005.156 5.155 5.142 5.142 0 005.155-5.155 5.143 5.143 0 00-5.155-5.156zm0 8.51a3.34 3.34 0 01-3.354-3.354 3.34 3.34 0 013.354-3.354 3.34 3.34 0 013.354 3.354 3.34 3.34 0 01-3.354 3.354zm6.578-8.727c0 .652-.528 1.21-1.211 1.21a1.213 1.213 0 01-1.211-1.21c0-.652.528-1.211 1.211-1.211.652.03 1.211.559 1.211 1.21z" fill="#fff"/></svg>