<svg width="30" height="30" fill="none" xmlns="http://www.w3.org/2000/svg"><path d="M30 15.48C30 25.77 25.29 30 15 30S0 25.8 0 15.48C0 5.19 4.71 0 15 0c10.32 0 15 5.19 15 15.48z" fill="#0C70F1"/><path d="M24.455 10.758s-.146-.397-1.05-.288l-2.992.02c-.229-.03-.395.06-.395.06s-.177.089-.26.307c-.488 1.202-1.111 2.235-1.111 2.235-1.33 2.166-1.87 2.285-2.089 2.146-.509-.308-.374-1.252-.374-1.927 0-2.106.333-2.98-.654-3.209-.322-.069-.561-.119-1.403-.129-1.07-.01-1.974 0-2.483.239-.343.159-.603.516-.447.536.198.03.644.12.883.427 0 0 .26.407.302 1.301.114 2.474-.416 2.782-.416 2.782-.405.208-1.112-.14-2.15-2.185 0 0-.603-1.014-1.07-2.126-.084-.209-.25-.318-.25-.318s-.187-.14-.457-.179l-2.847.02c-.437 0-.592.189-.592.189s-.156.159-.01.486c2.223 4.997 4.758 7.5 4.758 7.5s2.317 2.314 4.945 2.155h1.195c.364-.03.55-.218.55-.218s.167-.179.157-.507c-.021-1.53.727-1.758.727-1.758.727-.218 1.662 1.48 2.66 2.136 0 0 .758.496 1.33.387l2.66-.04c1.402-.01.737-1.122.737-1.122-.052-.09-.384-.775-1.984-2.195-1.663-1.48-1.444-1.242.571-3.805 1.226-1.56 1.714-2.513 1.559-2.92z" fill="#fff"/></svg>