<svg width="32" height="38" fill="none" xmlns="http://www.w3.org/2000/svg"><path fill-rule="evenodd" clip-rule="evenodd" d="M13.04 8.934l-3.651.002.001-1.979c0-1.566-1.03-2.617-2.566-2.617-1.536 0-2.568 1.054-2.57 2.621v1.98L.6 8.942l.001-1.98C.605 3.37 3.281.658 6.827.656c3.546-.003 6.218 2.706 6.215 6.3l-.001 1.979zm18.958-.014l-3.652.003.002-1.979c0-1.566-1.03-2.618-2.566-2.617-1.536 0-2.569 1.054-2.57 2.62l-.001 1.98-3.652.003.001-1.98c.003-3.594 2.678-6.306 6.224-6.308C29.33.639 32.002 3.347 32 6.942l-.002 1.979zM15.983 37.925c-4.46.003-8.529-1.622-11.455-4.577C1.605 30.397-.003 26.295 0 21.798l.004-6.345 3.647-.003-.004 6.346c-.003 3.523 1.23 6.71 3.47 8.971 2.237 2.26 5.387 3.502 8.869 3.5 3.481-.003 6.633-1.25 8.873-3.512 2.243-2.265 3.48-5.453 3.482-8.976l.005-6.346 3.647-.003-.005 6.346c-.003 4.496-1.617 8.6-4.544 11.556-2.93 2.959-7 4.59-11.461 4.593z" fill="#FFBBC2"/></svg>